<?xml version="1.0" encoding="utf-8"?>
<!-- Generator: Adobe Illustrator 14.0.0, SVG Export Plug-In . SVG Version: 6.00 Build 43363)  -->
<!DOCTYPE svg PUBLIC "-//W3C//DTD SVG 1.1//EN" "http://www.w3.org/Graphics/SVG/1.1/DTD/svg11.dtd">
<svg version="1.1" id="Layer_1" xmlns="http://www.w3.org/2000/svg" xmlns:xlink="http://www.w3.org/1999/xlink" x="0px" y="0px"
	 width="40px" height="40px" viewBox="0 0 40 40" enable-background="new 0 0 40 40" xml:space="preserve">
<g>
	<g>
		<g>
			<path fill="#F11848" d="M0,23c0-0.55,0.45-1,1-1h10c0.55,0,1,0.45,1,1v16c0,0.55-0.45,1-1,1H1c-0.55,0-1-0.45-1-1V23z"/>
		</g>
		<g>
			<path fill="#F11848" d="M14,13c0-0.55,0.45-1,1-1h10c0.55,0,1,0.45,1,1v26c0,0.55-0.45,1-1,1H15c-0.55,0-1-0.45-1-1V13z"/>
		</g>
		<g>
			<path fill="#F11848" d="M28,1c0-0.55,0.45-1,1-1h10c0.55,0,1,0.45,1,1v38c0,0.55-0.45,1-1,1H29c-0.55,0-1-0.45-1-1V1z"/>
		</g>
	</g>
</g>
</svg>
